<?xml version="1.0" encoding="utf-8"?>
<svg version="1.0" width="300.000000pt" height="82.000000pt" viewBox="0 0 300.000000 82.000000" preserveAspectRatio="xMidYMid meet" xmlns="http://www.w3.org/2000/svg">
  <g transform="translate(0.000000,82.000000) scale(0.100000,-0.100000)" fill="#000000" stroke="none">
    <path d="M2033 655 c0 -8 9 -15 19 -15 10 0 18 7 18 15 0 8 -8 15 -18 15 -10 0 -19 -7 -19 -15z" style="fill: rgb(255, 255, 255);"/>
    <path d="M893 589 c-88 -26 -129 -170 -78 -270 21 -40 71 -69 119 -69 46 0 113 37 97 53 -7 7 -17 5 -32 -9 -14 -13 -36 -19 -66 -19 -38 0 -49 5 -73 32 -55 61 -52 173 5 230 38 38 85 44 124 17 14 -11 26 -13 32 -7 7 7 2 15 -13 25 -32 21 -77 28 -115 17z" style="fill: rgb(255, 255, 255);"/>
    <path d="M1283 589 c-116 -34 -137 -254 -30 -319 18 -11 49 -20 70 -20 42 0 97 27 97 47 0 18 -10 16 -33 -5 -12 -11 -35 -17 -64 -17 -38 0 -49 5 -73 32 -55 61 -52 173 5 230 37 37 86 44 121 18 24 -18 34 -19 34 -2 0 29 -75 51 -127 36z" style="fill: rgb(255, 255, 255);"/>
    <path d="M240 421 l0 -171 58 0 c115 0 162 29 162 102 0 41 -27 78 -57 78 -16 1 -15 2 2 12 29 16 35 28 35 69 0 56 -26 73 -121 78 l-79 3 0 -171z m163 121 c17 -18 19 -26 11 -49 -12 -35 -47 -53 -101 -53 l-43 0 0 66 0 66 56 -4 c39 -3 62 -11 77 -26z m12 -147 c32 -31 32 -59 0 -90 -18 -19 -35 -25 -69 -25 -24 0 -51 -3 -60 -6 -14 -5 -16 5 -16 70 l0 76 60 0 c51 0 65 -4 85 -25z" style="fill: rgb(255, 255, 255);"/>
    <path d="M535 420 c0 -129 3 -170 13 -170 8 0 12 22 12 78 l0 79 36 -1 c34 -1 39 -5 81 -78 25 -43 51 -78 59 -78 20 0 19 1 -30 82 l-44 72 26 12 c46 19 58 45 54 112 -3 38 -56 62 -137 62 l-70 0 0 -170z m166 121 c26 -31 24 -57 -6 -86 -20 -21 -34 -25 -80 -25 l-55 0 0 71 0 71 61 -4 c49 -4 66 -9 80 -27z" style="fill: rgb(255, 255, 255);"/>
    <path d="M1506 428 c-31 -90 -56 -166 -56 -170 0 -5 6 -8 13 -8 6 0 20 27 30 60 l18 61 66 -3 66 -3 20 -57 c11 -34 24 -58 33 -58 8 0 14 1 14 3 0 1 -27 76 -59 167 -37 104 -64 166 -73 168 -11 2 -30 -39 -72 -160z m99 52 c14 -40 25 -77 25 -82 0 -4 -25 -8 -56 -8 -41 0 -54 3 -50 13 2 6 15 45 27 85 12 40 24 71 26 69 2 -2 14 -37 28 -77z" style="fill: rgb(255, 255, 255);"/>
    <path d="M1760 421 c0 -145 2 -171 15 -171 12 0 15 15 15 75 l0 75 61 0 c54 0 64 3 90 29 37 38 39 88 5 128 -22 25 -31 28 -105 31 l-81 4 0 -171z m160 124 c23 -21 27 -72 6 -100 -10 -13 -30 -20 -75 -23 l-61 -4 0 77 0 77 55 -4 c34 -3 62 -12 75 -23z" style="fill: rgb(255, 255, 255);"/>
    <path d="M2035 420 c0 -155 2 -170 18 -170 15 0 17 15 17 170 0 155 -2 170 -17 170 -16 0 -18 -15 -18 -170z" style="fill: rgb(255, 255, 255);"/>
    <path d="M2130 580 c0 -5 25 -10 55 -10 l55 0 0 -160 c0 -131 3 -160 14 -160 12 0 13 27 9 160 l-6 160 57 0 c31 0 56 5 56 10 0 6 -47 10 -120 10 -73 0 -120 -4 -120 -10z" style="fill: rgb(255, 255, 255);"/>
    <path d="M2431 432 c-30 -86 -56 -163 -59 -169 -2 -7 2 -13 10 -13 9 0 22 23 33 60 l18 61 65 -3 65 -3 20 -57 c12 -37 24 -58 34 -58 8 0 13 6 10 13 -2 6 -29 83 -58 169 -37 109 -59 158 -69 158 -10 0 -32 -48 -69 -158z m79 108 c0 -11 11 -49 25 -85 l24 -65 -58 0 -59 0 27 85 c25 81 41 107 41 65z" style="fill: rgb(255, 255, 255);"/>
    <path d="M2680 420 l0 -171 90 3 c112 4 124 22 18 26 l-78 3 0 154 c0 131 -2 155 -15 155 -13 0 -15 -26 -15 -170z" style="fill: rgb(255, 255, 255);"/>
  </g>
</svg>