<?xml version="1.0" encoding="utf-8"?>
<svg version="1.0" fill="currentColor" width="300.000000pt" height="143.000000pt" viewBox="0 0 300.000000 143.000000" preserveAspectRatio="xMidYMid meet" xmlns="http://www.w3.org/2000/svg">
  <g transform="translate(0.000000,143.000000) scale(0.100000,-0.100000)" fill="#000000" stroke="none">
    <path d="M1425 1316 c-20 -15 -17 -44 7 -59 12 -8 21 -7 32 2 36 30 -1 85 -39 57z" style="fill: rgb(255, 255, 255);"/>
    <path d="M1210 1295 c-26 -32 13 -81 48 -59 34 22 22 74 -18 74 -10 0 -23 -7 -30 -15z" style="fill: rgb(255, 255, 255);"/>
    <path d="M1614 1276 c-10 -26 4 -48 28 -44 17 2 23 10 23 28 0 18 -6 26 -23 28 -13 2 -25 -3 -28 -12z" style="fill: rgb(255, 255, 255);"/>
    <path d="M1004 1236 c-3 -8 -4 -25 -2 -38 2 -19 9 -23 38 -23 33 0 35 2 35 35 0 32 -3 35 -33 38 -21 2 -34 -2 -38 -12z m52 -17 c10 -17 -14 -35 -28 -21 -9 9 -8 12 8 12 16 0 17 2 4 10 -9 6 -10 10 -3 10 6 0 15 -5 19 -11z" style="fill: rgb(255, 255, 255);"/>
    <path d="M1807 1223 c-13 -12 -7 -41 10 -47 21 -8 48 17 40 38 -6 16 -38 22 -50 9z" style="fill: rgb(255, 255, 255);"/>
    <path d="M820 1141 c-5 -11 -10 -26 -10 -35 0 -14 36 -46 52 -46 13 0 48 39 48 54 0 41 -71 62 -90 27z m60 -32 c0 -12 -7 -19 -19 -19 -22 0 -34 23 -19 38 15 15 38 3 38 -19z" style="fill: rgb(255, 255, 255);"/>
    <path d="M1992 1121 c-20 -12 -10 -46 13 -46 14 0 20 7 20 24 0 27 -13 35 -33 22z" style="fill: rgb(255, 255, 255);"/>
    <path d="M1450 1096 c-27 -33 18 -72 48 -42 13 13 14 20 6 34 -15 23 -38 26 -54 8z" style="fill: rgb(255, 255, 255);"/>
    <path d="M1657 1088 c-21 -11 -22 -31 -3 -47 20 -16 46 -3 46 24 0 27 -19 37 -43 23z" style="fill: rgb(255, 255, 255);"/>
    <path d="M1249 1074 c-9 -11 -10 -20 -2 -32 15 -24 44 -27 59 -7 28 38 -27 75 -57 39z m41 -18 c0 -3 -4 -8 -10 -11 -5 -3 -10 -1 -10 4 0 6 5 11 10 11 6 0 10 -2 10 -4z" style="fill: rgb(255, 255, 255);"/>
    <path d="M1048 1005 c-14 -32 5 -57 41 -53 18 2 27 10 29 26 7 50 -49 72 -70 27z m52 -14 c0 -5 -7 -11 -15 -15 -9 -3 -15 0 -15 9 0 8 7 15 15 15 8 0 15 -4 15 -9z" style="fill: rgb(255, 255, 255);"/>
    <path d="M1846 1021 c-11 -18 6 -42 28 -39 29 4 29 42 -1 46 -11 2 -24 -1 -27 -7z" style="fill: rgb(255, 255, 255);"/>
    <path d="M2140 961 c0 -27 19 -36 37 -18 18 18 9 37 -18 37 -12 0 -19 -7 -19 -19z" style="fill: rgb(255, 255, 255);"/>
    <path d="M870 910 c-30 -30 -13 -65 30 -65 43 0 60 35 30 65 -11 11 -24 20 -30 20 -5 0 -19 -9 -30 -20z m45 -30 c0 -22 -29 -18 -33 3 -3 14 1 18 15 15 10 -2 18 -10 18 -18z" style="fill: rgb(255, 255, 255);"/>
    <path d="M2036 921 c-10 -16 5 -42 23 -39 21 4 21 42 -1 46 -9 2 -19 -1 -22 -7z" style="fill: rgb(255, 255, 255);"/>
    <path d="M2275 790 c-4 -7 -3 -16 3 -22 14 -14 45 -2 40 15 -6 16 -34 21 -43 7z" style="fill: rgb(255, 255, 255);"/>
    <path d="M712 778 c-34 -34 14 -102 56 -79 28 15 35 40 17 67 -17 26 -53 32 -73 12z m56 -36 c3 -18 -2 -22 -22 -22 -26 0 -30 7 -20 33 8 22 38 14 42 -11z" style="fill: rgb(255, 255, 255);"/>
    <path d="M2214 776 c-7 -19 3 -36 22 -36 10 0 14 8 12 22 -4 26 -26 36 -34 14z" style="fill: rgb(255, 255, 255);"/>
    <path d="M1290 404 c0 -174 3 -263 10 -259 6 4 10 103 10 266 0 166 -4 259 -10 259 -6 0 -10 -95 -10 -266z" style="fill: rgb(255, 255, 255);"/>
    <path d="M2840 420 c0 -174 1 -190 18 -190 16 0 17 15 14 190 -2 158 -5 190 -17 190 -13 0 -15 -30 -15 -190z" style="fill: rgb(255, 255, 255);"/>
    <path d="M723 558 c-6 -18 -40 -99 -76 -180 -63 -141 -65 -148 -43 -148 17 0 26 10 40 50 l18 50 75 0 74 0 21 -50 c14 -35 26 -50 39 -50 11 0 19 2 19 5 0 9 -143 339 -150 348 -4 4 -11 -7 -17 -25z m50 -135 l26 -63 -60 0 c-33 0 -59 3 -57 8 2 4 14 35 28 69 13 34 27 59 31 55 3 -4 18 -35 32 -69z" style="fill: rgb(255, 255, 255);"/>
    <path d="M130 403 l0 -173 65 0 c51 0 65 3 65 15 0 11 -12 15 -45 15 l-45 0 0 159 c0 154 -1 160 -20 158 -19 -1 -20 -8 -20 -174z" style="fill: rgb(255, 255, 255);"/>
    <path d="M340 403 l0 -173 90 0 c79 0 90 2 90 18 0 15 -9 17 -70 14 l-70 -4 0 71 0 71 70 0 c60 0 70 2 70 18 0 16 -8 17 -70 14 l-70 -4 0 56 0 56 70 0 c60 0 70 2 70 18 0 15 -11 17 -90 17 l-90 0 0 -172z" style="fill: rgb(255, 255, 255);"/>
    <path d="M970 406 c0 -169 1 -176 20 -176 18 0 20 7 20 75 l0 75 39 0 c28 0 49 8 70 26 26 22 31 33 31 70 0 64 -32 94 -99 94 -27 0 -56 3 -65 6 -14 5 -16 -13 -16 -170z m125 109 c14 -13 25 -31 25 -38 0 -26 -34 -56 -72 -63 l-38 -6 0 66 0 66 30 0 c19 0 40 -9 55 -25z" style="fill: rgb(255, 255, 255);"/>
    <path d="M1539 557 c-58 -31 -89 -84 -89 -156 0 -129 116 -212 235 -166 36 13 45 21 45 41 l0 24 -32 -20 c-18 -11 -50 -20 -71 -20 -133 0 -191 157 -93 248 31 28 43 32 90 32 39 0 60 -6 80 -21 l26 -20 0 26 c0 54 -113 73 -191 32z" style="fill: rgb(255, 255, 255);"/>
    <path d="M2342 543 c2 -10 10 -18 18 -18 8 0 16 8 18 18 2 12 -3 17 -18 17 -15 0 -20 -5 -18 -17z" style="fill: rgb(255, 255, 255);"/>
    <path d="M2450 480 c0 -22 -4 -40 -10 -40 -5 0 -10 -7 -10 -15 0 -8 5 -15 10 -15 6 0 10 -37 10 -90 0 -83 1 -90 20 -90 19 0 20 7 20 90 0 83 1 90 20 90 11 0 20 7 20 15 0 8 -9 15 -20 15 -17 0 -20 7 -20 40 0 33 -3 40 -20 40 -17 0 -20 -7 -20 -40z" style="fill: rgb(255, 255, 255);"/>
    <path d="M1814 416 c-29 -29 -34 -41 -34 -79 0 -89 87 -145 151 -98 23 17 29 19 29 6 0 -8 9 -15 20 -15 19 0 20 7 20 104 0 95 -2 104 -20 109 -15 4 -20 0 -20 -16 0 -13 -3 -17 -8 -11 -12 18 -49 34 -77 34 -17 0 -39 -12 -61 -34z m129 -28 c57 -68 -27 -172 -96 -118 -22 17 -27 30 -27 65 0 35 5 48 27 65 32 25 69 20 96 -12z" style="fill: rgb(255, 255, 255);"/>
    <path d="M2070 280 c0 -155 2 -170 18 -170 15 0 17 9 14 76 l-4 77 28 -22 c68 -53 154 0 154 95 0 91 -88 145 -154 93 -20 -16 -26 -17 -26 -6 0 8 -7 17 -15 21 -13 5 -15 -18 -15 -164z m143 120 c47 -37 43 -102 -8 -136 -45 -30 -105 14 -105 77 0 24 51 79 73 79 8 0 26 -9 40 -20z" style="fill: rgb(255, 255, 255);"/>
    <path d="M2340 338 c0 -101 1 -108 20 -108 19 0 20 7 20 108 0 101 -1 108 -20 108 -19 0 -20 -7 -20 -108z" style="fill: rgb(255, 255, 255);"/>
    <path d="M2584 416 c-29 -29 -34 -41 -34 -79 0 -89 87 -145 151 -98 23 17 29 19 29 6 0 -8 9 -15 20 -15 19 0 20 7 20 105 0 98 -1 105 -20 105 -12 0 -20 -7 -20 -16 0 -13 -5 -12 -26 5 -40 31 -80 27 -120 -13z m129 -28 c57 -68 -27 -172 -96 -118 -22 17 -27 30 -27 65 0 35 5 48 27 65 32 25 69 20 96 -12z" style="fill: rgb(255, 255, 255);"/>
  </g>
</svg>